<?xml version="1.0" encoding="UTF-8"?>
<svg version="1.1" xmlns="http://www.w3.org/2000/svg" width="48" height="48">
<path d="M0 0 C2.56716919 -0.25949725 4.87463045 -0.32579227 7.4375 -0.25 C8.54822876 -0.23356445 8.54822876 -0.23356445 9.68139648 -0.21679688 C18.46402061 -0.04834041 27.23271654 0.48045728 36 1 C36 9.91 36 18.82 36 28 C22.8 28 9.6 28 -4 28 C-4 27.34 -4 26.68 -4 26 C-3.34 26 -2.68 26 -2 26 C-1.773125 25.46375 -1.54625 24.9275 -1.3125 24.375 C0 22 0 22 2.6875 19.0625 C5.18893534 16.32072855 5.18893534 16.32072855 5.1875 13.625 C3.38692407 9.64477953 0.74207279 6.37937411 -2 3 C-1.34 2.01 -0.68 1.02 0 0 Z " fill="#853EEE" transform="translate(12,10)"/>
<path d="M0 0 C4.3785374 1.75141496 7.97072742 3.62983966 12 6 C12 6.99 12 7.98 12 9 C8.04 10.98 4.08 12.96 0 15 C0 10.05 0 5.1 0 0 Z " fill="#F9EFFD" transform="translate(26,17)"/>
<path d="M0 0 C0.33 0.99 0.66 1.98 1 3 C0.01 3.33 -0.98 3.66 -2 4 C-2 4.66 -2 5.32 -2 6 C9.88 6 21.76 6 34 6 C34 6.66 34 7.32 34 8 C20.8 8 7.6 8 -6 8 C-6 7.34 -6 6.68 -6 6 C-5.34 6 -4.68 6 -4 6 C-3.71125 5.38125 -3.4225 4.7625 -3.125 4.125 C-2 2 -2 2 0 0 Z " fill="#6131A9" transform="translate(14,30)"/>
<path d="M0 0 C0.33 0.99 0.66 1.98 1 3 C1.99 3.33 2.98 3.66 4 4 C4 4.99 4 5.98 4 7 C3.01 7.33 2.02 7.66 1 8 C1 8.99 1 9.98 1 11 C-0.65 11 -2.3 11 -4 11 C-4.33 10.01 -4.66 9.02 -5 8 C-5.99 8 -6.98 8 -8 8 C-8 6.02 -8 4.04 -8 2 C-4.91190305 0.23537317 -3.76687864 0 0 0 Z " fill="#7738D1" transform="translate(8,19)"/>
<path d="M0 0 C0.99 0.33 1.98 0.66 3 1 C2.67 3.31 2.34 5.62 2 8 C0.68 7.34 -0.64 6.68 -2 6 C-1.34 5.34 -0.68 4.68 0 4 C0 2.68 0 1.36 0 0 Z " fill="#5729A0" transform="translate(17,22)"/>
</svg>
